<?xml version="1.0" encoding="UTF-8"?>
<svg width="72px" height="72px" viewBox="0 0 72 72" version="1.1" xmlns="http://www.w3.org/2000/svg" xmlns:xlink="http://www.w3.org/1999/xlink">
    <!-- Generator: Sketch 57.1 (83088) - https://sketch.com -->
    <title>srvIcon/book</title>
    <desc>Created with Sketch.</desc>
    <g id="srvIcon/book" stroke="none" stroke-width="1" fill="none" fill-rule="evenodd">
        <g id="020-book-read-history-bookmarks-education-journal-log-logbook-3" transform="translate(8.000000, 10.000000)" fill="#0060B5" fill-rule="nonzero">
            <path d="M55,44.97 C55,44.97 36,44.97 36,44.97 C31.355,44.97 29,46.652 29,49.97 C29,50.523 28.552,50.97 28,50.97 C27.448,50.97 27,50.523 27,49.97 C27,46.652 24.645,44.97 20,44.97 C20,44.97 1,44.97 1,44.97 C0.448,44.97 0,44.522 0,43.97 C0,43.97 0,5.97 0,5.97 C0,5.417 0.448,4.97 1,4.97 C1,4.97 4,4.97 4,4.97 C4,4.97 4,1.97 4,1.97 C4,1.417 4.448,0.97 5,0.97 C5,0.97 23,0.97 23,0.97 C25.085,0.97 26.924,2.038 28,3.656 C29.076,2.038 30.915,0.97 33,0.97 C33,0.97 39,0.97 39,0.97 C39,0.97 45,0.97 45,0.97 C45,0.97 51,0.97 51,0.97 C51.552,0.97 52,1.417 52,1.97 C52,1.97 52,4.97 52,4.97 C52,4.97 55,4.97 55,4.97 C55.552,4.97 56,5.417 56,5.97 C56,5.97 56,43.97 56,43.97 C56,44.522 55.552,44.97 55,44.97 Z M4,39.97 C4,39.97 4,6.97 4,6.97 C4,6.97 2,6.97 2,6.97 C2,6.97 2,42.97 2,42.97 C2,42.97 20,42.97 20,42.97 C23.048,42.97 25.38,43.712 26.914,45.063 C26.502,42.355 24.194,40.97 20,40.97 C20,40.97 5,40.97 5,40.97 C4.448,40.97 4,40.523 4,39.97 Z M27,6.97 C27,4.764 25.206,2.97 23,2.97 C23,2.97 6,2.97 6,2.97 C6,2.97 6,38.97 6,38.97 C6,38.97 20,38.97 20,38.97 C23.099,38.97 25.467,39.73 27,41.124 C27,41.124 27,6.97 27,6.97 Z M44,2.97 C44,2.97 40,2.97 40,2.97 C40,2.97 40,12.97 40,12.97 C40,12.97 41.2,11.37 41.2,11.37 C41.389,11.118 41.685,10.97 42,10.97 C42.315,10.97 42.611,11.118 42.8,11.37 C42.8,11.37 44,12.97 44,12.97 C44,12.97 44,2.97 44,2.97 Z M50,2.97 C50,2.97 46,2.97 46,2.97 C46,2.97 46,15.97 46,15.97 C46,16.4 45.725,16.782 45.316,16.918 C45.212,16.953 45.105,16.97 45,16.97 C44.691,16.97 44.393,16.826 44.2,16.569 C44.2,16.569 42,13.637 42,13.637 C42,13.637 39.8,16.569 39.8,16.569 C39.541,16.914 39.094,17.058 38.684,16.918 C38.275,16.782 38,16.4 38,15.97 C38,15.97 38,2.97 38,2.97 C38,2.97 33,2.97 33,2.97 C30.794,2.97 29,4.764 29,6.97 C29,6.97 29,41.124 29,41.124 C30.533,39.73 32.901,38.97 36,38.97 C36,38.97 50,38.97 50,38.97 C50,38.97 50,2.97 50,2.97 Z M54,6.97 C54,6.97 52,6.97 52,6.97 C52,6.97 52,39.97 52,39.97 C52,40.523 51.552,40.97 51,40.97 C51,40.97 36,40.97 36,40.97 C31.806,40.97 29.498,42.355 29.086,45.063 C30.62,43.712 32.952,42.97 36,42.97 C36,42.97 54,42.97 54,42.97 C54,42.97 54,6.97 54,6.97 Z M33,33.97 C33,33.417 33.448,32.97 34,32.97 C34,32.97 45,32.97 45,32.97 C45.552,32.97 46,33.417 46,33.97 C46,34.522 45.552,34.97 45,34.97 C45,34.97 34,34.97 34,34.97 C33.448,34.97 33,34.522 33,33.97 Z M45,28.97 C45,28.97 34,28.97 34,28.97 C33.448,28.97 33,28.522 33,27.97 C33,27.417 33.448,26.97 34,26.97 C34,26.97 45,26.97 45,26.97 C45.552,26.97 46,27.417 46,27.97 C46,28.522 45.552,28.97 45,28.97 Z M45,22.97 C45,22.97 34,22.97 34,22.97 C33.448,22.97 33,22.523 33,21.97 C33,21.417 33.448,20.97 34,20.97 C34,20.97 45,20.97 45,20.97 C45.552,20.97 46,21.417 46,21.97 C46,22.523 45.552,22.97 45,22.97 Z M10,33.97 C10,33.417 10.448,32.97 11,32.97 C11,32.97 22,32.97 22,32.97 C22.552,32.97 23,33.417 23,33.97 C23,34.522 22.552,34.97 22,34.97 C22,34.97 11,34.97 11,34.97 C10.448,34.97 10,34.522 10,33.97 Z M22,28.97 C22,28.97 11,28.97 11,28.97 C10.448,28.97 10,28.522 10,27.97 C10,27.417 10.448,26.97 11,26.97 C11,26.97 22,26.97 22,26.97 C22.552,26.97 23,27.417 23,27.97 C23,28.522 22.552,28.97 22,28.97 Z M22,22.97 C22,22.97 11,22.97 11,22.97 C10.448,22.97 10,22.523 10,21.97 C10,21.417 10.448,20.97 11,20.97 C11,20.97 22,20.97 22,20.97 C22.552,20.97 23,21.417 23,21.97 C23,22.523 22.552,22.97 22,22.97 Z M22,16.97 C22,16.97 11,16.97 11,16.97 C10.448,16.97 10,16.522 10,15.97 C10,15.417 10.448,14.97 11,14.97 C11,14.97 22,14.97 22,14.97 C22.552,14.97 23,15.417 23,15.97 C23,16.522 22.552,16.97 22,16.97 Z M18,10.97 C18,10.97 15,10.97 15,10.97 C14.448,10.97 14,10.522 14,9.97 C14,9.417 14.448,8.97 15,8.97 C15,8.97 18,8.97 18,8.97 C18.552,8.97 19,9.417 19,9.97 C19,10.522 18.552,10.97 18,10.97 Z" id="Shape"></path>
        </g>
    </g>
</svg>