<?xml version="1.0" encoding="UTF-8"?>
<svg width="72px" height="72px" viewBox="0 0 72 72" version="1.1" xmlns="http://www.w3.org/2000/svg" xmlns:xlink="http://www.w3.org/1999/xlink">
    <!-- Generator: Sketch 57.1 (83088) - https://sketch.com -->
    <title>srvIcon/building</title>
    <desc>Created with Sketch.</desc>
    <g id="srvIcon/building" stroke="none" stroke-width="1" fill="none" fill-rule="evenodd">
        <g id="008-skyscraper-company-office-commercial-building-2" transform="translate(6.000000, 5.000000)" fill="#0060B5" fill-rule="nonzero">
            <path d="M59.008,60.021 C59.008,60.021 49.008,60.021 49.008,60.021 C49.008,60.021 45.008,60.021 45.008,60.021 C45.008,60.021 15.007,60.021 15.007,60.021 C15.007,60.021 11.007,60.021 11.007,60.021 C11.007,60.021 1.007,60.021 1.007,60.021 C0.454,60.021 0.006,59.574 0.006,59.022 C0.006,59.022 0.006,31.023 0.006,31.023 C0.006,30.471 0.454,30.023 1.007,30.023 C1.007,30.023 10.007,30.023 10.007,30.023 C10.007,30.023 10.007,9.025 10.007,9.025 C10.007,8.472 10.455,8.025 11.007,8.025 C11.007,8.025 16.007,8.025 16.007,8.025 C16.007,8.025 16.007,5.025 16.007,5.025 C16.007,4.472 16.455,4.025 17.007,4.025 C17.007,4.025 29.007,4.025 29.007,4.025 C29.007,4.025 29.007,1.025 29.007,1.025 C29.007,0.473 29.455,0.025 30.007,0.025 C30.56,0.025 31.007,0.473 31.007,1.025 C31.007,1.025 31.007,4.025 31.007,4.025 C31.007,4.025 43.008,4.025 43.008,4.025 C43.56,4.025 44.008,4.472 44.008,5.025 C44.008,5.025 44.008,8.025 44.008,8.025 C44.008,8.025 49.008,8.025 49.008,8.025 C49.56,8.025 50.008,8.472 50.008,9.025 C50.008,9.025 50.008,30.023 50.008,30.023 C50.008,30.023 59.008,30.023 59.008,30.023 C59.561,30.023 60.008,30.471 60.008,31.023 C60.008,31.023 60.008,59.022 60.008,59.022 C60.008,59.574 59.561,60.021 59.008,60.021 Z M2.006,54.022 C2.006,54.022 4.006,54.022 4.006,54.022 C4.006,54.022 4.006,36.023 4.006,36.023 C4.006,36.023 2.006,36.023 2.006,36.023 C2.006,36.023 2.006,54.022 2.006,54.022 Z M10.007,32.023 C10.007,32.023 2.006,32.023 2.006,32.023 C2.006,32.023 2.006,34.023 2.006,34.023 C2.006,34.023 10.007,34.023 10.007,34.023 C10.007,34.023 10.007,32.023 10.007,32.023 Z M10.007,36.023 C10.007,36.023 6.006,36.023 6.006,36.023 C6.006,36.023 6.006,54.022 6.006,54.022 C6.006,54.022 10.007,54.022 10.007,54.022 C10.007,54.022 10.007,36.023 10.007,36.023 Z M10.007,56.022 C10.007,56.022 2.006,56.022 2.006,56.022 C2.006,56.022 2.006,58.022 2.006,58.022 C2.006,58.022 10.007,58.022 10.007,58.022 C10.007,58.022 10.007,56.022 10.007,56.022 Z M58.008,36.023 C58.008,36.023 56.008,36.023 56.008,36.023 C56.008,36.023 56.008,54.022 56.008,54.022 C56.008,54.022 58.008,54.022 58.008,54.022 C58.008,54.022 58.008,36.023 58.008,36.023 Z M50.008,58.022 C50.008,58.022 58.008,58.022 58.008,58.022 C58.008,58.022 58.008,56.022 58.008,56.022 C58.008,56.022 50.008,56.022 50.008,56.022 C50.008,56.022 50.008,58.022 50.008,58.022 Z M54.008,54.022 C54.008,54.022 54.008,36.023 54.008,36.023 C54.008,36.023 50.008,36.023 50.008,36.023 C50.008,36.023 50.008,54.022 50.008,54.022 C50.008,54.022 54.008,54.022 54.008,54.022 Z M38.008,58.022 C38.008,58.022 44.008,58.022 44.008,58.022 C44.008,58.022 44.008,44.022 44.008,44.022 C44.008,44.022 38.008,44.022 38.008,44.022 C38.008,44.022 38.008,58.022 38.008,58.022 Z M40.008,20.024 C40.008,20.024 40.008,24.024 40.008,24.024 C40.008,24.024 44.008,24.024 44.008,24.024 C44.008,24.024 44.008,20.024 44.008,20.024 C44.008,20.024 40.008,20.024 40.008,20.024 Z M44.008,18.024 C44.008,18.024 44.008,14.024 44.008,14.024 C44.008,14.024 40.008,14.024 40.008,14.024 C40.008,14.024 40.008,18.024 40.008,18.024 C40.008,18.024 44.008,18.024 44.008,18.024 Z M40.008,26.023 C40.008,26.023 40.008,30.023 40.008,30.023 C40.008,30.023 44.008,30.023 44.008,30.023 C44.008,30.023 44.008,26.023 44.008,26.023 C44.008,26.023 40.008,26.023 40.008,26.023 Z M40.008,32.023 C40.008,32.023 40.008,36.023 40.008,36.023 C40.008,36.023 44.008,36.023 44.008,36.023 C44.008,36.023 44.008,32.023 44.008,32.023 C44.008,32.023 40.008,32.023 40.008,32.023 Z M40.008,38.023 C40.008,38.023 40.008,42.023 40.008,42.023 C40.008,42.023 44.008,42.023 44.008,42.023 C44.008,42.023 44.008,38.023 44.008,38.023 C44.008,38.023 40.008,38.023 40.008,38.023 Z M34.007,20.024 C34.007,20.024 34.007,24.024 34.007,24.024 C34.007,24.024 38.008,24.024 38.008,24.024 C38.008,24.024 38.008,20.024 38.008,20.024 C38.008,20.024 34.007,20.024 34.007,20.024 Z M38.008,18.024 C38.008,18.024 38.008,14.024 38.008,14.024 C38.008,14.024 34.007,14.024 34.007,14.024 C34.007,14.024 34.007,18.024 34.007,18.024 C34.007,18.024 38.008,18.024 38.008,18.024 Z M34.007,26.023 C34.007,26.023 34.007,30.023 34.007,30.023 C34.007,30.023 38.008,30.023 38.008,30.023 C38.008,30.023 38.008,26.023 38.008,26.023 C38.008,26.023 34.007,26.023 34.007,26.023 Z M34.007,32.023 C34.007,32.023 34.007,36.023 34.007,36.023 C34.007,36.023 38.008,36.023 38.008,36.023 C38.008,36.023 38.008,32.023 38.008,32.023 C38.008,32.023 34.007,32.023 34.007,32.023 Z M34.007,38.023 C34.007,38.023 34.007,42.023 34.007,42.023 C34.007,42.023 38.008,42.023 38.008,42.023 C38.008,42.023 38.008,38.023 38.008,38.023 C38.008,38.023 34.007,38.023 34.007,38.023 Z M31.007,58.022 C31.007,58.022 36.007,58.022 36.007,58.022 C36.007,58.022 36.007,44.022 36.007,44.022 C36.007,44.022 31.007,44.022 31.007,44.022 C31.007,44.022 31.007,58.022 31.007,58.022 Z M28.007,20.024 C28.007,20.024 28.007,24.024 28.007,24.024 C28.007,24.024 32.007,24.024 32.007,24.024 C32.007,24.024 32.007,20.024 32.007,20.024 C32.007,20.024 28.007,20.024 28.007,20.024 Z M32.007,18.024 C32.007,18.024 32.007,14.024 32.007,14.024 C32.007,14.024 28.007,14.024 28.007,14.024 C28.007,14.024 28.007,18.024 28.007,18.024 C28.007,18.024 32.007,18.024 32.007,18.024 Z M28.007,26.023 C28.007,26.023 28.007,30.023 28.007,30.023 C28.007,30.023 32.007,30.023 32.007,30.023 C32.007,30.023 32.007,26.023 32.007,26.023 C32.007,26.023 28.007,26.023 28.007,26.023 Z M28.007,32.023 C28.007,32.023 28.007,36.023 28.007,36.023 C28.007,36.023 32.007,36.023 32.007,36.023 C32.007,36.023 32.007,32.023 32.007,32.023 C32.007,32.023 28.007,32.023 28.007,32.023 Z M28.007,38.023 C28.007,38.023 28.007,42.023 28.007,42.023 C28.007,42.023 32.007,42.023 32.007,42.023 C32.007,42.023 32.007,38.023 32.007,38.023 C32.007,38.023 28.007,38.023 28.007,38.023 Z M24.007,58.022 C24.007,58.022 29.007,58.022 29.007,58.022 C29.007,58.022 29.007,44.022 29.007,44.022 C29.007,44.022 24.007,44.022 24.007,44.022 C24.007,44.022 24.007,58.022 24.007,58.022 Z M22.007,20.024 C22.007,20.024 22.007,24.024 22.007,24.024 C22.007,24.024 26.007,24.024 26.007,24.024 C26.007,24.024 26.007,20.024 26.007,20.024 C26.007,20.024 22.007,20.024 22.007,20.024 Z M26.007,18.024 C26.007,18.024 26.007,14.024 26.007,14.024 C26.007,14.024 22.007,14.024 22.007,14.024 C22.007,14.024 22.007,18.024 22.007,18.024 C22.007,18.024 26.007,18.024 26.007,18.024 Z M22.007,26.023 C22.007,26.023 22.007,30.023 22.007,30.023 C22.007,30.023 26.007,30.023 26.007,30.023 C26.007,30.023 26.007,26.023 26.007,26.023 C26.007,26.023 22.007,26.023 22.007,26.023 Z M22.007,32.023 C22.007,32.023 22.007,36.023 22.007,36.023 C22.007,36.023 26.007,36.023 26.007,36.023 C26.007,36.023 26.007,32.023 26.007,32.023 C26.007,32.023 22.007,32.023 22.007,32.023 Z M22.007,38.023 C22.007,38.023 22.007,42.023 22.007,42.023 C22.007,42.023 26.007,42.023 26.007,42.023 C26.007,42.023 26.007,38.023 26.007,38.023 C26.007,38.023 22.007,38.023 22.007,38.023 Z M16.007,58.022 C16.007,58.022 22.007,58.022 22.007,58.022 C22.007,58.022 22.007,44.022 22.007,44.022 C22.007,44.022 16.007,44.022 16.007,44.022 C16.007,44.022 16.007,58.022 16.007,58.022 Z M16.007,42.023 C16.007,42.023 20.007,42.023 20.007,42.023 C20.007,42.023 20.007,38.023 20.007,38.023 C20.007,38.023 16.007,38.023 16.007,38.023 C16.007,38.023 16.007,42.023 16.007,42.023 Z M16.007,36.023 C16.007,36.023 20.007,36.023 20.007,36.023 C20.007,36.023 20.007,32.023 20.007,32.023 C20.007,32.023 16.007,32.023 16.007,32.023 C16.007,32.023 16.007,36.023 16.007,36.023 Z M16.007,30.023 C16.007,30.023 20.007,30.023 20.007,30.023 C20.007,30.023 20.007,26.023 20.007,26.023 C20.007,26.023 16.007,26.023 16.007,26.023 C16.007,26.023 16.007,30.023 16.007,30.023 Z M16.007,24.024 C16.007,24.024 20.007,24.024 20.007,24.024 C20.007,24.024 20.007,20.024 20.007,20.024 C20.007,20.024 16.007,20.024 16.007,20.024 C16.007,20.024 16.007,24.024 16.007,24.024 Z M16.007,18.024 C16.007,18.024 20.007,18.024 20.007,18.024 C20.007,18.024 20.007,14.024 20.007,14.024 C20.007,14.024 16.007,14.024 16.007,14.024 C16.007,14.024 16.007,18.024 16.007,18.024 Z M42.008,6.025 C42.008,6.025 18.007,6.025 18.007,6.025 C18.007,6.025 18.007,8.025 18.007,8.025 C18.007,8.025 42.008,8.025 42.008,8.025 C42.008,8.025 42.008,6.025 42.008,6.025 Z M48.008,31.023 C48.008,31.023 48.008,10.024 48.008,10.024 C48.008,10.024 43.008,10.024 43.008,10.024 C43.008,10.024 17.007,10.024 17.007,10.024 C17.007,10.024 12.007,10.024 12.007,10.024 C12.007,10.024 12.007,31.023 12.007,31.023 C12.007,31.023 12.007,58.022 12.007,58.022 C12.007,58.022 14.007,58.022 14.007,58.022 C14.007,58.022 14.007,13.024 14.007,13.024 C14.007,12.472 14.455,12.024 15.007,12.024 C15.007,12.024 45.008,12.024 45.008,12.024 C45.56,12.024 46.008,12.472 46.008,13.024 C46.008,13.024 46.008,58.022 46.008,58.022 C46.008,58.022 48.008,58.022 48.008,58.022 C48.008,58.022 48.008,31.023 48.008,31.023 Z M50.008,32.023 C50.008,32.023 50.008,34.023 50.008,34.023 C50.008,34.023 58.008,34.023 58.008,34.023 C58.008,34.023 58.008,32.023 58.008,32.023 C58.008,32.023 50.008,32.023 50.008,32.023 Z" id="Shape"></path>
        </g>
    </g>
</svg>