<?xml version="1.0" encoding="UTF-8"?>
<svg width="72px" height="72px" viewBox="0 0 72 72" version="1.1" xmlns="http://www.w3.org/2000/svg" xmlns:xlink="http://www.w3.org/1999/xlink">
    <!-- Generator: Sketch 57.1 (83088) - https://sketch.com -->
    <title>srvIcon/gov</title>
    <desc>Created with Sketch.</desc>
    <g id="srvIcon/gov" stroke="none" stroke-width="1" fill="none" fill-rule="evenodd">
        <g id="008-bank-banking-city-hall-business-finance-building-government-flag" transform="translate(6.000000, 6.000000)" fill="#0060B5" fill-rule="nonzero">
            <path d="M59,61 L55,61 L5,61 L1,61 C0.448,61 0,60.553 0,60 C0,59.448 0.448,59.001 1,59.001 L4,59.001 L4,56.001 C4,55.449 4.447,55.002 5,55.002 L6,55.002 L6,53.002 C6,52.45 6.447,52.002 7,52.002 L7,38.006 C6.447,38.006 6,37.558 6,37.006 L6,34.007 L6,30.008 C6,29.659 6.182,29.335 6.481,29.154 L28.999,15.45 L28.999,11.982 L28.999,3.984 L28.999,1.985 C28.999,1.433 29.446,0.985 29.999,0.985 C30.552,0.985 30.999,1.433 30.999,1.985 L30.999,2.985 L37.999,2.985 C38.552,2.985 38.999,3.432 38.999,3.984 L38.999,4.984 L45.999,4.984 C46.378,4.984 46.724,5.198 46.894,5.537 C47.063,5.876 47.026,6.281 46.799,6.584 L44.249,9.983 L46.799,13.382 C47.026,13.685 47.063,14.09 46.894,14.429 C46.724,14.768 46.378,14.982 45.999,14.982 L37.999,14.982 C37.446,14.982 36.999,14.534 36.999,13.982 L36.999,12.982 L30.999,12.982 L30.999,15.449 L53.52,29.154 C53.818,29.335 54,29.659 54,30.008 L54,34.007 L54,37.006 C54,37.558 53.553,38.006 53,38.006 L53,52.002 C53.553,52.002 54,52.45 54,53.002 L54,55.002 L55,55.002 C55.553,55.002 56,55.449 56,56.001 L56,59.001 L59,59.001 C59.553,59.001 60,59.448 60,60 C60,60.553 59.553,61 59,61 Z M47,52.002 L47,38.006 C46.447,38.006 46,37.558 46,37.006 L46,35.007 L44,35.007 L44,37.006 C44,37.558 43.553,38.006 43,38.006 L43,52.002 C43.553,52.002 44,52.45 44,53.002 L44,55.002 L46,55.002 L46,53.002 C46,52.45 46.447,52.002 47,52.002 Z M16,59.001 L44,59.001 L44,57.001 L43,57.001 L37,57.001 L33,57.001 L27,57.001 L23,57.001 L17,57.001 L16,57.001 L16,59.001 Z M42,36.006 L42,35.007 L38,35.007 L38,36.006 L42,36.006 Z M39,38.006 L39,52.002 L41,52.002 L41,38.006 L39,38.006 Z M38,54.002 L38,55.002 L42,55.002 L42,54.002 L38,54.002 Z M33,38.006 L33,52.002 C33.553,52.002 34,52.45 34,53.002 L34,55.002 L36,55.002 L36,53.002 C36,52.45 36.447,52.002 37,52.002 L37,38.006 C36.447,38.006 36,37.558 36,37.006 L36,35.007 L34,35.007 L34,37.006 C34,37.558 33.553,38.006 33,38.006 Z M32,36.006 L32,35.007 L28,35.007 L28,36.006 L32,36.006 Z M29,38.006 L29,52.002 L31,52.002 L31,38.006 L29,38.006 Z M28,54.002 L28,55.002 L32,55.002 L32,54.002 L28,54.002 Z M23,38.006 L23,52.002 C23.553,52.002 24,52.45 24,53.002 L24,55.002 L26,55.002 L26,53.002 C26,52.45 26.447,52.002 27,52.002 L27,38.006 C26.447,38.006 26,37.558 26,37.006 L26,35.007 L24,35.007 L24,37.006 C24,37.558 23.553,38.006 23,38.006 Z M22,36.006 L22,35.007 L18,35.007 L18,36.006 L22,36.006 Z M19,38.006 L19,52.002 L21,52.002 L21,38.006 L19,38.006 Z M18,54.002 L18,55.002 L22,55.002 L22,54.002 L18,54.002 Z M17,52.002 L17,38.006 C16.447,38.006 16,37.558 16,37.006 L16,35.007 L14,35.007 L14,37.006 C14,37.558 13.553,38.006 13,38.006 L13,52.002 C13.553,52.002 14,52.45 14,53.002 L14,55.002 L16,55.002 L16,53.002 C16,52.45 16.447,52.002 17,52.002 Z M6,57.001 L6,59.001 L14,59.001 L14,57.001 L13,57.001 L7,57.001 L6,57.001 Z M12,36.006 L12,35.007 L8,35.007 L8,36.006 L12,36.006 Z M9,38.006 L9,52.002 L11,52.002 L11,38.006 L9,38.006 Z M8,54.002 L8,55.002 L12,55.002 L12,54.002 L8,54.002 Z M38.999,12.982 L43.999,12.982 L42.199,10.583 C41.933,10.227 41.933,9.738 42.199,9.383 L43.999,6.984 L38.999,6.984 L38.999,11.982 L38.999,12.982 Z M36.999,10.983 L36.999,5.984 L36.999,4.984 L30.999,4.984 L30.999,10.983 L36.999,10.983 Z M52,30.57 L30,17.182 L8,30.57 L8,33.007 L13,33.007 L17,33.007 L23,33.007 L27,33.007 L33,33.007 L37,33.007 L43,33.007 L47,33.007 L52,33.007 L52,30.57 Z M52,35.007 L48,35.007 L48,36.006 L52,36.006 L52,35.007 Z M49,38.006 L49,52.002 L51,52.002 L51,38.006 L49,38.006 Z M52,54.002 L48,54.002 L48,55.002 L52,55.002 L52,54.002 Z M54,57.001 L53,57.001 L47,57.001 L46,57.001 L46,59.001 L54,59.001 L54,57.001 Z M46,31.008 L14,31.008 C13.55,31.008 13.155,30.707 13.036,30.272 C12.916,29.838 13.102,29.378 13.489,29.148 L29.489,19.65 C29.804,19.464 30.196,19.464 30.511,19.65 L46.511,29.148 C46.897,29.378 47.084,29.838 46.964,30.272 C46.845,30.707 46.45,31.008 46,31.008 Z M30,21.673 L17.643,29.008 L42.357,29.008 L30,21.673 Z" id="Shape"></path>
        </g>
    </g>
</svg>