<?xml version="1.0" encoding="utf-8"?>
<svg width="54" height="12" viewBox="0 0 54 12" fill="none" xmlns="http://www.w3.org/2000/svg">
<path d="M20.095 1.00946H22.1011L25.5123 7.18L28.9234 1.00947H30.8861V11.1488H29.2494V3.37776L26.2582 8.75887H24.7229L21.7317 3.37776V11.1488H20.095V1.00946Z" fill="white"/>
<path d="M36.1658 11.3297C35.4077 11.3297 34.7414 11.162 34.1669 10.8264C33.5923 10.4908 33.1444 10.0261 32.8234 9.43224C32.5023 8.83833 32.3417 8.15755 32.3418 7.38988C32.3418 6.61256 32.4987 5.92453 32.8125 5.32579C33.1264 4.72717 33.5621 4.25881 34.1198 3.92071C34.6775 3.58283 35.3185 3.41385 36.0427 3.41376C36.762 3.41376 37.3813 3.58395 37.9004 3.92432C38.4193 4.26479 38.8188 4.7416 39.0989 5.35474C39.3789 5.96797 39.5189 6.68739 39.519 7.51299V7.96195H33.9641C34.0655 8.58009 34.3154 9.06654 34.7137 9.42132C35.112 9.77622 35.6154 9.95365 36.2237 9.95362C36.7113 9.95362 37.1314 9.8812 37.4839 9.73635C37.8363 9.59151 38.167 9.37183 38.4761 9.07733L39.3452 10.1419C38.4808 10.9339 37.421 11.3298 36.1658 11.3297ZM37.3608 5.31487C37.0179 4.96488 36.5689 4.78985 36.0137 4.78978C35.4729 4.78978 35.0202 4.96845 34.6558 5.32578C34.2911 5.68309 34.0606 6.1635 33.9641 6.76702H37.9474C37.8991 6.14898 37.7035 5.66493 37.3608 5.31487Z" fill="white"/>
<path d="M41.5038 4.93474H39.9973V3.59488H41.5038V1.37872H43.0826V3.59488H45.3712V4.93474H43.0826V8.33139C43.0826 8.89625 43.1791 9.2994 43.3723 9.54084C43.5653 9.78234 43.896 9.90304 44.3645 9.90295C44.572 9.90295 44.7482 9.8945 44.8932 9.87761C45.038 9.86077 45.1974 9.83783 45.3712 9.80879V11.1341C45.1728 11.1915 44.9708 11.2351 44.7664 11.2646C44.5326 11.299 44.2966 11.3159 44.0603 11.3152C42.3559 11.3152 41.5037 10.3834 41.5038 8.51971V4.93474Z" fill="white"/>
<path d="M53.5984 11.1486H52.0485V10.0912C51.7733 10.4872 51.4233 10.7926 50.9984 11.0074C50.5735 11.2222 50.0907 11.3296 49.5499 11.3297C48.8836 11.3297 48.2934 11.1595 47.7792 10.8191C47.2649 10.4787 46.8606 10.0104 46.5661 9.41411C46.2715 8.8178 46.1243 8.13581 46.1243 7.36814C46.1243 6.59564 46.274 5.91242 46.5733 5.31848C46.8726 4.72467 47.2866 4.25875 47.8154 3.92072C48.3441 3.58284 48.9512 3.41385 49.6368 3.41376C50.1534 3.41376 50.617 3.51396 51.0274 3.71436C51.4322 3.91021 51.7829 4.2024 52.0485 4.56531V3.59486H53.5984V11.1486ZM52.0196 6.23833C51.8505 5.8086 51.5837 5.4694 51.2193 5.22071C50.8547 4.97208 50.4334 4.84777 49.9555 4.84777C49.2795 4.84777 48.7411 5.07469 48.3405 5.52853C47.9396 5.98239 47.7393 6.5956 47.7394 7.36814C47.7394 8.14555 47.9325 8.76116 48.3187 9.21496C48.7049 9.66883 49.2288 9.89575 49.8903 9.89572C50.3779 9.89572 50.8125 9.77017 51.1939 9.51908C51.5753 9.26814 51.8505 8.93017 52.0196 8.50516V6.23833Z" fill="white"/>
<path d="M12.1869 0.666565C10.8707 0.666565 9.84183 1.65788 8.91046 2.91716C7.63058 1.28753 6.5602 0.666565 5.27928 0.666565C2.66779 0.666565 0.66687 4.06519 0.66687 7.66243C0.66687 9.91346 1.75589 11.3332 3.57997 11.3332C4.89283 11.3332 5.83704 10.7143 7.51561 7.78013C7.51561 7.78013 8.21531 6.54449 8.69667 5.69332C8.86535 5.96566 9.043 6.25911 9.22963 6.57369L10.0168 7.89783C11.5501 10.4637 12.4044 11.3332 13.9524 11.3332C15.7294 11.3332 16.7184 9.89405 16.7184 7.59622C16.7184 3.82978 14.6723 0.666565 12.1869 0.666565ZM6.23561 6.98565C4.87469 9.11898 4.40388 9.59714 3.64618 9.59714C2.86641 9.59714 2.40296 8.91257 2.40296 7.69185C2.40296 5.08036 3.70503 2.41001 5.25722 2.41001C6.09776 2.41001 6.80019 2.89545 7.87612 4.43575C6.85448 6.0028 6.23561 6.98565 6.23561 6.98565ZM11.3719 6.71708L10.4308 5.1475C10.1761 4.73329 9.93134 4.35203 9.69651 4.00371C10.5447 2.69454 11.2444 2.0422 12.0765 2.0422C13.8053 2.0422 15.1883 4.58749 15.1883 7.71392C15.1883 8.90565 14.7979 9.59714 13.9892 9.59714C13.214 9.59714 12.8437 9.0852 11.3719 6.71708Z" fill="white"/>
</svg>